<?xml version="1.0" encoding="UTF-8"?>
<svg viewBox="0 0 640 480" xmlns="http://www.w3.org/2000/svg">
 <g fill-rule="evenodd">
  <polygon points="185.08 7.75 186.15 8.05 187.18 8.45 189.22 9.35 191.28 10.35 193.32 11.55 196.99 13.75 200.55 16.2 203.87 18.8 207.14 21.7 208.11 22.45 209.04 23.25 210.02 24 210.94 24.8 212.9 26.3 214.8 27.8 216.56 29 218.32 30.15 220.17 31.2 222.02 32.25 223.49 31.8 224.32 31.65 225.2 31.55 227.4 31.15 229.54 30.8 231.74 30.4 233.94 30 238.43 29.25 242.82 28.85 247.8 28.6 246.97 29.05 246.09 29.6 245.26 30.2 244.43 30.9 243.7 31.6 242.96 32.45 242.28 33.3 241.55 34.3 241.01 35.25 240.48 36.25 240.04 37.3 239.65 38.45 239.4 39.55 239.21 40.75 239.06 42 239.01 43.3 239.06 43.9 239.01 44.5 238.91 45.05 238.72 45.55 238.28 46.35 237.99 46.7 237.6 47.05 237.25 47.25 236.82 47.45 236.33 47.6 235.74 47.7 234.52 47.7 233.84 47.65 233.06 47.6 231.98 47.35 230.86 47.3 229.79 47.3 228.66 47.45 227.69 47.65 226.66 48 225.69 48.45 224.66 49 223.83 49.55 222.95 50.2 222.17 50.85 221.39 51.65 220.71 52.4 220.02 53.25 219.44 54.15 218.85 55.15 218.36 56.1 217.92 57.1 217.58 58.1 217.24 59.2 217 60.3 216.8 61.45 216.7 62.6 216.66 63.85 216.7 64.6 216.66 65.3 216.56 65.9 216.36 66.5 216.22 67 215.97 67.45 215.68 67.85 215.34 68.2 215 68.45 214.56 68.65 214.12 68.75 213.58 68.85 213.04 68.85 212.46 68.8 211.82 68.65 211.09 68.5 210.41 68.25 209.63 68.1 207.92 68 208.02 64.2 208.07 62.3 208.07 60.45 208.16 58.05 208.31 55.75 208.55 53.4 208.8 51.1 209.04 49.2 209.19 47.4 209.24 45.6 209.19 43.8 209.38 41.25 209.24 38.9 208.8 36.65 208.5 35.55 208.07 34.55 207.43 33.3 206.41 32.25 204.7 30.65 202.94 29.15 199.43 26.25 197.72 24.75 195.91 23.4 194.06 22.1 192.06 20.9 188.2 18.55 184.3 16.35 182.2 15.25 179.95 14.35 177.7 13.65 175.36 13.2 170.82 12.65 168.53 12.5 166.14 12.55 161.45 12.65 156.72 12.85 155.64 12.85 154.52 13 153.45 13.15 152.32 13.4 150.18 14 149.15 14.35 148.08 14.8 143.93 16.4 139.58 17.8 139.1 17.9 138.56 18 138.07 18 137.58 18.05 137.19 17.95 137 17.9 136.75 17.9 136.36 17.75 135.92 17.65 135.63 17.4 135.29 17.2 135.04 16.9 134.75 16.6 134.56 16.2 134.31 15.8 134.31 15.65 134.26 15.55 134.17 15.35 133.97 14.9 134.61 14.5 135.19 14.15 136.41 13.45 137.68 12.65 138.32 12.25 138.9 11.9 141 10.75 143.15 9.7 145.34 8.75 147.59 8 149.88 7.25 152.13 6.6 154.42 6 156.72 5.55 159.16 5.1 161.5 4.75 163.84 4.55 166.14 4.5 168.53 4.55 170.92 4.7 173.41 4.95 175.9 5.4 178.39 5.85 180.73 6.45 182.98 7.05" fill="#4cb52b"/>
  <polygon points="133.97 14.9 134.17 15.35 134.26 15.55 134.31 15.65 134.31 15.8 134.56 16.2 134.75 16.6 135.04 16.9 135.29 17.2 135.63 17.4 135.92 17.65 136.36 17.75 136.75 17.9 137 17.9 137.19 17.95 137.58 18.05 138.07 18 138.56 18 139.1 17.9 139.58 17.8 143.93 16.4 148.08 14.8 149.15 14.35 150.18 14 152.32 13.4 153.45 13.15 154.52 13 155.64 12.85 156.72 12.85 161.45 12.65 166.14 12.55 168.53 12.5 170.82 12.65 175.36 13.2 177.7 13.65 179.95 14.35 182.2 15.25 184.3 16.35 188.2 18.55 192.06 20.9 194.06 22.1 195.91 23.4 197.72 24.75 199.43 26.25 202.94 29.15 204.7 30.65 206.41 32.25 207.43 33.3 208.07 34.55 208.5 35.55 208.8 36.65 209.24 38.9 209.38 41.25 209.19 43.8 209.04 41.45 208.7 40.7 208.16 39.95 207.53 39 206.8 38.05 204.16 34.4 201.18 30.9 199.67 29.25 198.89 28.45 198.01 27.75 196.25 26.4 195.33 25.75 194.3 25.2 190.15 22.85 185.81 20.65 183.86 19.6 181.85 18.65 177.8 17 175.75 16.3 173.56 15.75 171.36 15.35 169.02 15.15 166.72 15 164.28 15 161.84 15.15 159.26 15.45 156.77 15.8 154.37 16.35 152.08 16.9 149.84 17.65 145.44 19.3 143.24 20.25 141 21.3 140.02 21.7 139 22.1 138.02 22.45 137.53 22.6 137 22.8 135.04 23.3 133.09 23.75 132.7 23.55 132.31 23.4 131.97 23.2 131.58 23.05 130.99 22.65 130.75 22.45 130.46 22.3 130.46 22.2 130.41 22.15 130.31 22.05 130.12 21.85 129.77 21.45 129.63 20.95 129.63 20.8 129.58 20.7 129.48 20.5 129.53 20.2 129.53 19.95 129.68 19.45 129.92 18.85 130.07 18.55 130.16 18.4 130.21 18.3 130.36 18.1 130.46 17.95 130.7 17.65 131.24 17.05 131.87 16.35 132.26 16 132.6 15.7" fill="#275b15"/>
  <path d="m74.52 147.3l2.6358-3.699 2.6846-3.601 1.4643-1.75 1.4643-1.6 1.5619-1.5 0.8307-0.7 0.781-0.6 1.5619-1.101 1.5629-0.899 1.6596-0.801 0.8776-0.35 0.8307-0.25 1.2691 1.55 1.2691 1.5 1.2691 1.45 1.2691 1.4 1.27 1.25 1.1217 1.449 1.025 1.5 0.8786 1.65 0.4393 0.9 0.1953 0.449 0.0976 0.5 0.1953 0.9 0.0488 1-0.0488 0.9-0.1953 0.899-0.2929 0.9-0.4393 0.95-0.7322 1.5-0.7322 1.6-0.6345 1.6-0.5369 1.65-0.3895 1.85-0.0986 1-0.0488 1.051 0.0488 1.85-0.1455 1.9-0.2441 1.8-0.3905 1.899-0.3905 1.801-0.3417 1.85-0.2929 1.85-0.244 1.9-0.2441 3.8-0.1464 3.9-0.0976 2.85-0.2441-0.1-0.2929-0.05-0.5867-0.15-0.4881-0.2-0.4881-0.25-0.3895-0.35-0.3905-0.4v-0.14999h-0.048805l-0.0986-0.101-0.1943-0.2-0.3426-0.5-1.3179-2.75-1.5131-2.699-1.1715-2.051-1.3188-1.899-1.4643-1.75-1.6098-1.601-1.5639-1.396-1.7084-1.25-1.7084-1.15-1.9026-1-1.2203-0.649-1.3188-0.45-2.6846-0.75-1.5619-0.351-1.6596-0.25-3.3679-0.399-7.9552-0.65-8.1523-0.45-1.7572-0.149-1.7572-0.2-1.7572-0.25-0.8786-0.15-0.9274-0.1-3.5144-0.7-3.5153-0.899-3.2215-1.15-3.2215-1.25-3.1238-1.4-3.1239-1.55-2.2941-1.3-2.2453-1.35-1.0748-0.75-1.1216-0.7-2.1965-1.5-2.0511-1.7-1.9026-1.55-2.0989-1.7-2.1965-1.4-0.0488-0.6v-0.44999l-0.0488-0.1-0.0498-1.101 0.0986-1.1 0.1454-1.1 1.4643-0.25 1.3189-0.051 1.2691 0.051 1.1227 0.199 1.1704 0.301 1.026 0.449 0.9762 0.551 0.8298 0.75 0.9762 0.75 0.9274 0.8 1.8538 1.45 1.9525 1.3 1.9524 1.25 2.051 1.05 1.025 0.5 0.9762 0.55 1.0739 0.45 1.026 0.5 2.0979 1 4.2953 1.7 4.2944 1.55 2.2463 0.55 2.2453 0.5 1.1715 0.15 0.5857 0.05 0.5369 0.1 1.1714 0.101 1.1227 0.1h2.3907l2.3429 0.05 4.7346 0.101 2.3917-0.101 2.296-0.153 2.2941-0.351 2.1965-0.449 1.1714-0.351 1.0738-0.45 1.0748-0.55 0.9264-0.55 0.9762-0.75 0.8307-0.75 0.8298-0.95 0.7312-0.949zm22.111-0.15l-0.1464-1.25-0.0976-0.55-0.1952-0.4-0.4393-0.7-0.244-0.25-0.3417-0.149-0.6346-0.25-0.3417-0.051-0.4393 0.101-0.9275 0.3-1.025 0.55-1.5132 1.05-0.6833 0.551-0.7322 0.649-1.2203 1.351-0.5369 0.699-0.5369 0.801-0.4393 0.75-0.3905 0.8-0.6834 1.6-0.3895 1.65-0.1464 0.8-0.0976 0.9 0.0488 0.3 0.0976 0.1 0.0986 0.15 0.1952 0.05 0.1943 0.1 0.5379 0.101 0.9264-0.05 0.8786-0.101 0.8298-0.149 0.7819-0.25 0.8278-0.353 0.781-0.399 0.7322-0.5 0.6834-0.551 0.0976-0.1 0.0498-0.05 0.1455-0.101 0.1953-0.149 0.1464-0.101 0.244-0.199 0.1455-0.101 0.0986-0.05 0.2929-0.25 0.244-0.2 0.8298-0.45 0.3905-0.25 0.2929-0.25 0.5369-0.649 0.244-0.351 0.1464-0.3 0.3417-0.85 0.1464-0.45 0.0488-0.45 0.0488-1.05v-0.55l-0.0976-0.499z" fill="#4cb52b"/>
  <g fill="#275b15">
   <polygon points="91.799 144.5 92.824 143.95 93.751 143.65 94.191 143.55 94.532 143.6 95.167 143.85 95.508 144 95.752 144.25 96.192 144.95 96.387 145.35 96.485 145.9 96.631 147.15 96.729 147.65 96.729 148.2 96.68 149.25 96.631 149.7 96.485 150.15 96.143 151 95.997 151.3 95.752 151.65 95.216 152.3 94.923 152.55 94.532 152.8 93.702 153.25 93.458 153.45 93.166 153.7 93.068 153.75 92.922 153.85 92.677 154.05 92.531 154.15 92.336 154.3 92.189 154.4 92.14 154.45 92.043 154.55 91.36 155.1 90.627 155.6 89.846 156 89.017 156.35 88.236 156.6 87.406 156.75 86.527 156.85 85.6 156.9 85.063 156.8 84.868 156.7 84.672 156.65 84.575 156.5 84.477 156.4 84.428 156.1 84.526 155.2 84.672 154.4 85.063 152.75 85.746 151.15 86.137 150.35 86.576 149.6 87.113 148.8 87.65 148.1 88.87 146.75 89.602 146.1 90.286 145.55"/>
   <polygon points="93.702 130.1 94.728 129.9 95.606 129.95 97.51 131.5 98.388 132.3 99.12 133.2 100.49 135.05 101.56 137.1 102.05 137.8 102.49 138.5 102.78 138.8 102.88 138.85 102.93 138.95 103.02 139.15 103.51 139.75 104.1 140.2 104.64 140.6 104.83 140.65 104.98 140.75 105.27 140.95 105.47 141 105.61 141.1 105.9 141.3 106.3 141.4 106.49 141.45 106.64 141.55 107.37 141.75 108.15 141.9 108.93 142.05 109.91 142.2 110.74 142.6 111.47 143.2 112.1 144 112.54 144.55 112.88 145.15 113.32 146.25 113.47 146.75 113.52 147.3 113.37 148.3 113.03 149.2 112.74 149.6 112.35 150.05 111.96 150.4 111.42 150.8 110.88 151.15 110.2 151.55 108.35 152.45 107.47 152.85 107.03 153.05 106.54 153.3 104.83 154.1 104.44 154.25 104 154.45 103.12 154.85 103.17 156.65 103.27 158.45 103.51 160.15 103.76 161.85 104.2 163.25 104.44 163.95 104.64 164.7 104.88 165.45 104.98 166.25 104.93 166.95 104.88 167.3 104.73 167.7 104.49 168.2 104.15 168.75 103.71 169.25 103.46 169.5 103.12 169.8 102.2 170.55 101.42 171.4 100.83 172.3 100.34 173.35 100.1 174.4 99.95 175.55 99.999 176.75 100.19 178.1 100.58 179.3 100.68 179.4 100.73 179.4 100.73 179.45 100.73 179.55 100.83 179.85 101.07 180.45 101.42 180.95 101.61 181.2 101.76 181.5 102.59 182.5 103.17 183.05 103.56 183.7 103.86 184.35 103.9 185.05 103.86 185.75 103.61 186.5 103.27 187.3 102.73 188.15 102.49 188.45 102.1 188.75 101.71 188.95 101.17 189.15 99.853 189.5 98.535 190.05 97.266 190.8 96.192 191.75 95.313 192.8 94.972 193.4 94.581 194.1 94.386 194.65 94.142 195.25 93.8 196.45 93.605 197.55 93.507 198.75 93.605 199.85 93.702 200.4 93.751 201 94.044 202.1 94.239 202.65 94.435 203.25 94.825 203.8 95.216 204.25 94.337 203.85 94.142 203.7 93.898 203.6 93.41 203.4 92.58 202.9 91.701 202.35 90.92 201.7 90.139 201 89.798 200.6 89.407 200.25 88.626 199.45 85.649 195.85 84.233 194.05 82.769 192.3 82.134 191.3 81.451 190.35 80.133 188.35 78.962 186.25 78.425 185.15 77.839 184.1 77.351 182.95 76.765 181.9 75.447 179.9 74.032 178 73.251 177.1 72.372 176.3 70.615 174.6 68.712 173.2 66.71 171.95 64.611 170.95 56.46 167.3 54.361 166.4 52.165 165.7 49.919 165.2 47.576 164.95 45.331 164.7 44.794 164.6 44.208 164.55 43.037 164.4 40.792 163.95 38.546 163.4 34.007 162.05 29.419 160.8 27.174 160.15 24.831 159.4 22.586 158.55 20.243 157.7 19.266 157.15 18.778 156.85 18.681 156.75 18.632 156.7 18.534 156.7 18.241 156.6 17.265 155.95 16.289 155.35 15.41 154.6 14.483 153.9 13.653 153.1 12.775 152.3 11.213 150.55 9.6995 148.75 9.0162 147.8 8.284 146.9 6.9173 145.05 6.4292 144.15 6.2339 143.7 5.9899 143.3 5.6482 142.4 5.5506 141.95 5.4042 141.55 7.6006 142.95 9.6995 144.65 11.603 146.2 13.653 147.9 15.85 149.4 16.972 150.1 18.046 150.85 20.291 152.2 22.586 153.5 25.709 155.05 28.833 156.45 32.055 157.7 35.276 158.85 38.791 159.75 42.305 160.45 43.232 160.55 44.111 160.7 45.868 160.95 47.625 161.15 49.382 161.3 57.534 161.75 65.49 162.4 68.858 162.8 70.518 163.05 72.079 163.4 74.764 164.15 76.082 164.6 77.302 165.25 79.206 166.25 80.914 167.4 82.622 168.65 84.184 170.05 85.795 171.65 87.26 173.4 88.577 175.3 89.749 177.35 91.262 180.05 92.58 182.8 92.922 183.3 93.117 183.5 93.214 183.6 93.263 183.6 93.263 183.65 93.263 183.75 93.654 184.15 94.044 184.5 94.532 184.75 95.02 184.95 95.606 185.1 95.899 185.15 96.143 185.25 96.241 182.4 96.387 178.5 96.631 174.7 96.875 172.8 97.168 170.95 97.51 169.1 97.9 167.3 98.291 165.4 98.535 163.6 98.681 161.7 98.632 159.85 98.681 158.8 98.779 157.8 99.169 155.95 99.706 154.3 100.34 152.7 101.07 151.1 101.8 149.6 102.24 148.65 102.54 147.75 102.73 146.85 102.78 145.95 102.73 144.95 102.54 144.05 102.44 143.55 102.24 143.1 101.8 142.2 100.93 140.55 99.902 139.05 98.779 137.6 97.51 136.35 96.241 134.95 94.972 133.5 93.702 132 92.433 130.45"/>
  </g>
  <polygon points="118.5 116.95 117.03 117.9 115.47 118.9 113.86 119.85 112.1 120.85 111.08 121.4 110.1 122.1 109.18 122.85 108.3 123.7 107.52 124.55 106.74 125.5 106.05 126.5 105.37 127.6 104.88 128.6 104.44 129.65 104.1 130.7 103.81 131.8 103.61 132.9 103.46 134.05 103.42 135.25 103.37 136.45 103.51 139.75 103.02 139.15 102.93 138.95 102.88 138.85 102.78 138.8 102.49 138.5 102.05 137.8 101.56 137.1 100.49 135.05 99.12 133.2 98.388 132.3 97.51 131.5 95.606 129.95 96.973 128.2 98.535 126.6 99.413 125.8 100.34 125.05 102.29 123.65 104.54 122.25 106.98 121 108.3 120.4 109.66 119.8 112.5 118.75 115.52 117.75" fill="#95001b"/>
  <polygon points="112.1 120.85 113.86 119.85 115.47 118.9 117.03 117.9 118.5 116.95 121.23 116.3 122.6 116 123.92 115.8 126.65 115.45 129.28 115.2 132.02 115.05 134.75 115.05 137.49 115.15 140.12 115.4 142.86 115.7 145.59 116.15 148.32 116.7 151.06 117.45 152.47 117.8 153.84 118.25 156.57 119.2 159.3 120.25 162.04 121.5 167.7 124.05 173.31 126.65 179.02 129.15 184.68 131.65 190.44 134.05 196.16 136.45 201.92 138.8 203.38 139.35 204.8 139.95 207.63 141.15 219.24 145.6 225.1 147.75 228.03 148.8 230.91 149.9 233.89 150.9 236.82 151.95 242.67 154 248.63 155.95 254.53 157.95 257.9 158.6 261.22 159.25 264.49 159.8 267.71 160.25 270.98 160.6 274.16 160.85 277.33 161 280.45 161.05 280.94 161.25 281.33 161.45 283.77 161.45 334.53 162 385.39 162.5 386.42 162.45 387.3 162.5 388.08 162.55 388.71 162.75 389.3 162.95 389.74 163.25 390.08 163.55 390.23 164 390.37 164.4 390.32 164.95 390.18 165.5 389.93 166.15 389.59 166.8 389.1 167.55 388.52 168.35 387.79 169.25 383.3 172 378.66 174.7 374.02 177.35 369.24 179.95 363.43 182.9 360.5 184.35 357.48 185.85 354.5 187.25 351.42 188.65 345.22 191.4 340.78 193.2 336.24 194.95 331.7 196.65 327.12 198.3 322.53 199.85 317.89 201.35 313.25 202.75 308.57 204.1 303.88 205.3 299.15 206.45 294.41 207.55 289.58 208.6 284.8 209.55 279.96 210.4 275.08 211.2 270.15 211.95 260.54 213.15 255.75 213.75 253.36 214.05 250.92 214.4 241.35 215.55 231.79 216.75 229.54 216.1 227.2 215.7 224.86 215.4 222.51 215.35 217.92 215.2 213.24 215.2 204.75 215.1 196.35 214.95 194.5 214.8 192.54 214.65 190.69 214.35 188.74 214 184.73 213.1 180.58 212.45 176.97 211.9 173.36 211.3 171.41 210.9 170.43 210.65 169.41 210.45 165.5 209.45 163.26 208.85 160.96 208.5 158.67 208.3 156.33 208.3 154.28 208.25 152.23 208.2 150.18 208.05 149.69 207.95 149.59 207.9 149.44 207.9 149.15 207.9 148.08 207.8 143.98 207.1 139.83 206.6 137.58 206.35 136.46 206.15 135.29 206 133.04 205.6 130.8 205.15 128.6 204.6 126.36 204.25 124.11 204.05 121.77 204 119.52 203.8 118.45 203.6 117.28 203.35 116.2 203 115.13 202.6 114.06 202.15 112.98 201.65 111.03 200.4 109.08 199.15 108.15 198.45 107.17 197.8 106.74 197.4 106.25 197.05 105.27 196.35 104.39 195.55 103.95 195.15 103.46 194.8 102.64 194 101.76 193.25 100.15 191.65 98.535 190.05 99.853 189.5 101.17 189.15 101.71 188.95 102.1 188.75 102.49 188.45 102.73 188.15 103.27 187.3 103.61 186.5 103.86 185.75 103.9 185.05 103.86 184.35 103.56 183.7 103.17 183.05 102.59 182.5 101.76 181.5 101.61 181.2 101.42 180.95 101.07 180.45 100.83 179.85 100.73 179.55 100.73 179.45 100.73 179.4 100.68 179.4 100.58 179.3 100.19 178.1 99.999 176.75 99.95 175.55 100.1 174.4 100.34 173.35 100.83 172.3 101.42 171.4 102.2 170.55 103.12 169.8 103.46 169.5 103.71 169.25 104.15 168.75 104.49 168.2 104.73 167.7 106.64 167.65 107.56 167.6 108.39 167.55 110 167.25 111.52 166.9 115.91 165.55 120.26 164.3 122.45 163.75 124.6 163.35 126.84 163.05 129.04 162.9 133.53 162.65 138.02 162.65 146.42 162.75 153.64 162.75 162.04 162.9 164.18 162.9 166.28 163.05 170.58 163.5 170.77 163.5 170.87 163.5 170.92 163.5 170.92 163.55 171.21 163.65 171.41 163.65 171.51 163.65 171.56 163.65 171.56 163.7 171.85 163.8 172.53 163.85 173.22 163.9 174.53 163.85 175.8 163.9 177.02 164.05 178.19 164.3 180.44 164.85 182.68 165.5 187.18 167.05 189.18 167.8 191.03 168.65 192.84 169.6 194.54 170.7 196.6 171.95 198.64 173.1 200.79 174.1 202.94 174.95 205.09 175.6 206.16 175.9 206.46 175.95 206.7 176.05 207.19 176.25 211.48 177.35 213.82 177.8 215 177.95 216.12 178.15 217.34 178.25 218.51 178.4 220.85 178.6 228.62 178.85 232.62 178.95 236.52 179 239.5 179 242.33 179.15 246.72 179.3 251.12 179.4 260.1 179.4 268.4 179.4 274.74 179.4 283.09 179.4 287.87 179.45 292.65 179.65 294.9 179.7 297.05 179.7 298.17 179.6 299.24 179.55 301.39 179.4 304.76 178.8 308.03 178.1 310.42 177.5 312.76 177.05 317.55 176.4 319.35 176.1 321.11 175.6 321.99 175.25 322.87 174.85 324.53 173.95 320.33 174.35 315.99 174.7 313.84 174.85 311.64 175.1 307.25 175.65 304.91 175.85 302.56 176 300.17 176.05 297.73 176 288.46 176 279.92 176 270.79 176 266.39 175.9 261.9 175.75 252.97 175.25 251.95 175.15 250.87 175.05 248.72 174.75 246.68 174.3 244.53 173.8 240.13 172.3 235.74 170.7 231.79 169.1 227.74 167.7 223.88 166.25 219.83 164.85 218.27 164.3 216.61 163.85 214.95 163.5 213.24 163.25 211.19 162.9 209.14 162.45 208.16 162.1 207.14 161.8 205.09 161.05 200.74 159.25 196.25 157.7 194.01 157 191.71 156.45 189.37 156.05 186.93 155.85 182.34 155.6 177.7 155.45 175.61 155.45 173.46 155.55 171.41 155.7 169.31 155.95 166.97 156.15 164.62 156.3 162.28 156.35 159.89 156.35 157.45 156.3 154.96 156.35 149.59 156.5 140.85 156.5 136.26 156.35 131.68 156.1 129.63 156 127.58 156.05 125.53 156.2 123.43 156.5 121.18 156.9 118.89 157.55 116.64 158.3 114.3 159.25 113.23 159.65 112.06 160.1 110.84 160.45 109.52 160.85 108.2 161.1 106.78 161.4 105.32 161.6 103.76 161.85 103.51 160.15 103.27 158.45 103.17 156.65 103.12 154.85 104 154.45 104.44 154.25 104.83 154.1 106.54 153.3 107.03 153.05 107.47 152.85 108.35 152.45 110.2 151.55 110.88 151.15 111.42 150.8 111.96 150.4 112.35 150.05 112.74 149.6 113.03 149.2 113.37 148.3 113.52 147.3 113.47 146.75 113.32 146.25 112.88 145.15 112.54 144.55 112.1 144 111.47 143.2 110.74 142.6 109.91 142.2 108.93 142.05 108.15 141.9 107.37 141.75 106.64 141.55 106.49 141.45 106.3 141.4 105.9 141.3 105.61 141.1 105.47 141 105.27 140.95 104.98 140.75 104.83 140.65 104.64 140.6 104.1 140.2 103.51 139.75 103.37 136.45 103.42 135.25 103.46 134.05 103.61 132.9 103.81 131.8 104.1 130.7 104.44 129.65 104.88 128.6 105.37 127.6 106.05 126.5 106.74 125.5 107.52 124.55 108.3 123.7 109.18 122.85 110.1 122.1 111.08 121.4" fill="#ce0026"/>
  <polygon points="104.64 164.7 104.44 163.95 104.2 163.25 103.76 161.85 105.32 161.6 106.78 161.4 108.2 161.1 109.52 160.85 110.84 160.45 112.06 160.1 113.23 159.65 114.3 159.25 116.64 158.3 118.89 157.55 121.18 156.9 123.43 156.5 125.53 156.2 127.58 156.05 129.63 156 131.68 156.1 136.26 156.35 140.85 156.5 149.59 156.5 154.96 156.35 157.45 156.3 159.89 156.35 162.28 156.35 164.62 156.3 166.97 156.15 169.31 155.95 171.41 155.7 173.46 155.55 175.61 155.45 177.7 155.45 182.34 155.6 186.93 155.85 189.37 156.05 191.71 156.45 194.01 157 196.25 157.7 200.74 159.25 205.09 161.05 207.14 161.8 208.16 162.1 209.14 162.45 211.19 162.9 213.24 163.25 214.95 163.5 216.61 163.85 218.27 164.3 219.83 164.85 223.88 166.25 227.74 167.7 231.79 169.1 235.74 170.7 240.13 172.3 244.53 173.8 246.68 174.3 248.72 174.75 250.87 175.05 251.95 175.15 252.97 175.25 261.9 175.75 266.39 175.9 270.79 176 279.92 176 288.46 176 297.73 176 300.17 176.05 302.56 176 304.91 175.85 307.25 175.65 311.64 175.1 313.84 174.85 315.99 174.7 320.33 174.35 324.53 173.95 322.87 174.85 321.99 175.25 321.11 175.6 319.35 176.1 317.55 176.4 312.76 177.05 310.42 177.5 308.03 178.1 304.76 178.8 301.39 179.4 299.24 179.55 298.17 179.6 297.05 179.7 294.9 179.7 292.65 179.65 287.87 179.45 283.09 179.4 274.74 179.4 268.4 179.4 260.1 179.4 251.12 179.4 246.72 179.3 242.33 179.15 239.5 179 236.52 179 232.62 178.95 228.62 178.85 220.85 178.6 218.51 178.4 217.34 178.25 216.12 178.15 215 177.95 213.82 177.8 211.48 177.35 207.19 176.25 206.7 176.05 206.46 175.95 206.16 175.9 205.09 175.6 202.94 174.95 200.79 174.1 198.64 173.1 196.6 171.95 194.54 170.7 192.84 169.6 191.03 168.65 189.18 167.8 187.18 167.05 182.68 165.5 180.44 164.85 178.19 164.3 177.02 164.05 175.8 163.9 174.53 163.85 173.22 163.9 172.53 163.85 171.85 163.8 171.56 163.7 171.56 163.65 171.51 163.65 171.41 163.65 171.21 163.65 170.92 163.55 170.92 163.5 170.87 163.5 170.77 163.5 170.58 163.5 166.28 163.05 164.18 162.9 162.04 162.9 153.64 162.75 146.42 162.75 138.02 162.65 133.53 162.65 129.04 162.9 126.84 163.05 124.6 163.35 122.45 163.75 120.26 164.3 115.91 165.55 111.52 166.9 110 167.25 108.39 167.55 107.56 167.6 106.64 167.65 104.73 167.7 104.88 167.3 104.93 166.95 104.98 166.25 104.88 165.45" fill="#df777b"/>
  <polygon points="105.27 196.35 106.25 197.05 106.74 197.4 107.17 197.8 108.15 198.45 109.08 199.15 111.03 200.4 112.98 201.65 114.06 202.15 115.13 202.6 116.2 203 117.28 203.35 118.45 203.6 119.52 203.8 121.77 204 124.11 204.05 126.36 204.25 128.6 204.6 130.8 205.15 133.04 205.6 135.29 206 136.46 206.15 137.58 206.35 139.83 206.6 143.98 207.1 148.08 207.8 149.15 207.9 149.44 207.9 149.59 207.9 149.69 207.95 150.18 208.05 152.23 208.2 154.28 208.25 156.33 208.3 158.67 208.3 160.96 208.5 163.26 208.85 165.5 209.45 169.41 210.45 170.43 210.65 171.41 210.9 173.36 211.3 176.97 211.9 180.58 212.45 184.73 213.1 188.74 214 190.69 214.35 192.54 214.65 194.5 214.8 196.35 214.95 204.75 215.1 213.24 215.2 217.92 215.2 222.51 215.35 224.86 215.4 227.2 215.7 229.54 216.1 231.79 216.75 223.83 217.65 215.83 218.55 211.87 218.95 207.87 219.4 203.92 219.8 199.91 220.25 197.77 220.4 195.57 220.6 191.32 220.9 189.27 221 188.78 221 188.25 221.05 187.18 221.15 183.03 221.35 179.07 221.45 177.17 221.45 175.22 221.5 171.46 221.5 167.7 221.5 165.94 221.4 165.06 221.35 164.14 221.35 160.67 221.15 159.01 221 157.3 220.9 156.52 220.8 156.13 220.75 155.69 220.75 154.03 220.65 150.91 220.25 147.83 219.85 144.86 219.35 141.98 218.85 138.95 218.15 135.92 217.45 134.46 217.05 133.73 216.85 132.95 216.7 129.92 216 127.04 215.2 124.11 214.4 123.43 214.15 122.7 213.95 121.23 213.55 120.55 213.3 119.82 213.1 118.35 212.7 116.98 212.2 116.3 211.95 115.57 211.75 114.2 211.25 113.52 211 112.79 210.8 110.05 209.8 107.32 208.85 104.68 207.75 104.05 207.45 103.37 207.2 102 206.7 99.413 205.6 96.778 204.5 96.387 204.5 95.948 204.5 95.606 204.4 95.216 204.25 94.825 203.8 94.435 203.25 94.239 202.65 94.044 202.1 93.751 201 93.702 200.4 93.605 199.85 93.507 198.75 93.605 197.55 93.8 196.45 94.142 195.25 94.386 194.65 94.581 194.1 94.972 193.4 95.313 192.8 96.192 191.75 97.266 190.8 98.535 190.05 100.15 191.65 101.76 193.25 102.64 194 103.46 194.8 103.95 195.15 104.39 195.55" fill="#95001b"/>
  <polygon points="278.65 30.9 280.74 31.7 282.75 32.65 284.75 33.6 286.65 34.7 288.6 35.8 290.46 37.05 294.12 39.7 297.68 42.65 299.44 44.2 301.1 45.9 302.81 47.6 304.42 49.45 306.03 51.35 307.54 53.4 312.42 58.55 317.06 63.85 321.6 69.2 325.89 74.65 330.09 80.1 334.1 85.7 338 91.3 341.66 97.05 344.49 100.85 345.27 101.75 345.66 102.2 346 102.7 347.47 104.6 350.59 108.3 352.25 110.1 353.91 111.95 355.67 113.7 357.43 115.5 361.14 119 363.09 120.7 364.06 121.55 364.99 122.45 366.99 124.15 367.53 124.55 368.02 125 368.99 125.9 376.51 131 380.37 133.5 382.32 134.75 384.22 136.05 386.22 137.25 388.18 138.5 392.13 141 400.14 145.9 401.21 146.45 402.23 147.05 404.28 148.25 408.43 150.65 416.83 155.35 421.12 157.6 425.42 159.9 429.81 162.15 434.16 164.45 437.43 166.25 440.5 168.15 443.58 170.05 446.5 172.05 452.22 176.1 455 178.2 457.58 180.35 460.17 182.5 462.66 184.7 467.4 189.25 469.69 191.55 471.79 193.9 473.89 196.3 475.84 198.8 476.28 199.2 476.62 199.65 476.91 200.05 477.11 200.5 477.4 201.3 477.5 201.65 477.5 202.05 477.5 202.35 477.4 202.7 477.3 203 477.11 203.35 476.62 203.95 476.28 204.2 475.84 204.5 471.64 204.25 469.59 204.1 467.49 204 465.49 203.8 463.44 203.65 459.44 203.3 459 203.2 458.51 203.15 457.54 203.05 455.58 202.85 451.78 202.4 448.07 201.9 446.26 201.6 444.41 201.35 440.89 200.7 440.06 200.5 439.18 200.35 437.43 200.05 435.77 199.65 434.94 199.45 434.06 199.3 432.4 198.9 431.57 198.7 430.69 198.55 429.13 198.1 427.52 197.7 425.96 197.25 424.34 196.85 421.27 195.95 419.81 195.45 419.46 195.3 419.07 195.2 418.29 195 414.05 193.85 409.85 192.9 405.7 191.95 401.55 191.2 397.5 190.45 393.5 189.9 389.54 189.4 385.64 189.05 381.88 186.1 378.02 183.55 375.92 182.35 373.73 181.35 371.53 180.55 369.24 179.95 374.02 177.35 378.66 174.7 383.3 172 387.79 169.25 388.52 168.35 389.1 167.55 389.59 166.8 389.93 166.15 390.18 165.5 390.32 164.95 390.37 164.4 390.23 164 390.08 163.55 389.74 163.25 389.3 162.95 388.71 162.75 388.08 162.55 387.3 162.5 386.42 162.45 385.39 162.5 334.53 162 332.09 161.65 330.92 161.45 330.34 161.35 330.04 161.3 329.7 161.3 327.36 160.8 326.24 160.5 325.06 160.25 324.58 160.05 324.33 159.95 324.04 159.9 322.97 159.6 320.82 158.9 318.67 158.15 316.52 157.3 314.57 156.35 313.59 155.8 313.11 155.5 313.01 155.4 312.96 155.35 312.86 155.35 312.57 155.25 312.37 155.05 312.28 154.95 312.23 154.9 312.13 154.9 311.64 154.6 310.66 154 309.74 153.3 308.76 152.6 307 151.05 305.15 149.7 301.29 147.15 297.58 144.55 296.71 143.85 296.51 143.65 296.41 143.55 296.36 143.5 296.27 143.5 295.78 143.2 293.92 141.8 287.19 136.2 285.48 134.75 283.67 133.45 279.92 131 278.01 129.7 277.08 129 276.11 128.35 275.23 127.6 274.3 126.9 272.45 125.4 270.93 124 269.27 122.7 267.62 121.4 265.86 120.2 264 118.8 262.15 117.35 260.39 115.85 259.51 115.05 259.07 114.65 258.58 114.3 256.88 112.6 256.1 111.7 255.7 111.25 255.26 110.85 254.92 110.35 254.53 109.9 253.8 109 253.12 108 252.78 107.5 252.39 107.05 251.02 105 249.41 103.15 247.7 101.45 245.75 99.9 245.36 99.5 245.16 99.3 245.06 99.2 245.02 99.15 244.92 99.15 244.04 98.45 242.28 97.05 240.62 95.6 238.91 94.2 237.25 92.7 236.47 91.9 236.08 91.5 235.89 91.3 235.79 91.2 235.74 91.15 235.64 91.15 234.08 89.55 234.08 89.45 234.03 89.4 233.94 89.3 233.74 89.1 233.35 88.7 232.57 87.9 229.49 84.35 226.32 81 224.71 79.25 223.2 77.6 221.83 76 220.61 74.55 221.88 73.75 223.05 72.95 222.76 70.1 223.15 70.35 223.54 70.7 224.27 71.65 225.64 73.25 226.37 74.05 227.15 74.95 228.91 76.7 230.76 78.55 234.72 82.05 235.79 82.85 236.82 83.65 237.89 84.35 238.91 85.05 241.65 86.7 244.14 88.55 244.72 88.95 245.31 89.3 246.33 89.9 247.36 90.2 248.19 90.4 247.75 89.3 247.16 88.25 246.53 87.15 245.75 86.1 244.43 84 242.96 82.05 241.5 80.1 239.94 78.3 238.43 76.4 238.08 75.9 237.69 75.45 236.91 74.55 235.5 72.65 234.08 70.75 232.72 68.8 231.2 67.05 230.42 66.2 229.54 65.45 227.74 64 226.13 62.6 224.52 61.2 223.05 59.7 222.37 58.95 221.64 58.25 221.78 56.45 222.02 54.75 222.42 54.1 222.76 53.55 223.49 52.6 223.93 52.15 224.32 51.8 225.2 51.3 226.17 50.9 226.71 50.75 227.2 50.7 228.27 50.7 229.4 50.95 230.81 51.45 231.45 51.8 231.98 52.25 232.57 52.7 233.06 53.25 233.5 53.85 233.84 54.6 234.96 56.45 236.23 54.65 237.5 52.9 238.52 51.6 239.55 50.45 239.89 51.15 240.28 51.85 240.77 52.55 241.31 53.35 241.94 54.1 242.62 54.9 243.36 55.7 244.14 56.55 245.06 57.35 245.94 58.1 246.92 58.8 247.41 59.1 247.5 59.1 247.55 59.15 247.65 59.25 247.85 59.45 248.14 59.55 248.24 59.55 248.29 59.6 248.38 59.7 248.87 60 249.16 60.1 249.26 60.1 249.31 60.15 249.41 60.25 249.9 60.55 250.97 61.05 251.51 61.25 252 61.5 254.14 62.25 256.24 63.1 258.29 64.1 260.24 65.25 262.15 66.45 263.95 67.8 264.83 68.5 265.61 69.3 267.13 71 268.84 72.85 270.54 74.8 272.15 76.4 273.67 78.1 276.64 81.7 278.26 83.4 279.92 85.05 280.79 85.8 281.62 86.6 283.38 88.05 285.09 89.4 286.65 90.95 288.16 92.5 289.58 94.2 292.31 97.55 294.8 101.05 296.22 102.95 297.68 104.85 299.2 106.65 300.76 108.5 302.27 110.15 303.69 111.9 305 113.65 306.22 115.5 306.96 116.4 307.35 116.85 307.69 117.35 308.47 118.2 309.25 119.05 310.13 119.8 311.01 120.6 311.94 121.3 312.81 122 314.91 123.4 315.99 124.05 317.01 124.75 318.38 125.5 319.7 126.45 320.96 127.5 322.14 128.65 323.02 129.35 323.11 129.35 323.16 129.4 323.26 129.5 323.45 129.7 323.84 130.1 324.72 130.75 325.55 131.45 326.04 131.7 326.48 132 327.36 132.6 328.34 133.15 328.82 133.4 329.26 133.7 331.36 134.7 333.36 135.8 337.27 138.15 338.34 138.75 338.88 139.05 339.37 139.4 341.42 140.6 343.56 141.75 345.71 142.85 347.96 143.7 350.15 144.6 354.64 146.25 358.99 147.75 363.28 149.45 365.43 150.25 367.58 151.1 368.16 151.25 368.7 151.45 369.78 151.85 371.92 152.6 374.02 153.25 376.07 154.05 378.12 154.9 380.17 155.95 379.49 154.95 378.71 154.05 377 152.4 376.12 151.6 375.14 150.9 373.04 149.6 371.14 148.5 369.09 147.7 366.99 147.1 364.8 146.75 364.55 146.65 364.26 146.6 363.67 146.5 362.5 146.3 361.38 146 360.21 145.75 359.13 145.35 358.6 145.15 358.01 145 356.94 144.55 355.82 144.15 353.67 143.1 352.64 142.5 351.57 141.95 349.52 140.7 348.54 140.05 347.52 139.45 343.86 136.9 340.05 134.5 338.1 133.25 337.17 132.55 336.19 131.9 334.34 130.5 333.46 129.75 332.53 129.05 329.02 126 327.21 124.55 325.31 123.2 321.65 120.55 317.94 117.85 310.57 112.25 310.13 111.85 309.64 111.5 308.66 110.8 306.81 109.35 305.93 108.55 305.49 108.15 305 107.8 304.12 107 303.69 106.6 303.2 106.25 302.37 105.35 301.59 104.5 300.9 103.55 300.27 102.65 299.73 101.65 299.24 100.65 298.85 99.6 298.46 98.6 297.73 96.35 297.24 95.25 296.66 94.25 296.07 93.2 295.39 92.25 293.78 90.4 290.7 86.9 289.19 85.1 288.46 84.2 287.68 83.35 284.89 80 281.96 76.85 280.55 75.3 278.94 73.9 277.28 72.65 275.47 71.55 271.37 69 269.32 67.75 267.22 66.6 265.27 65.4 264.3 64.8 263.81 64.5 263.71 64.4 263.66 64.35 263.56 64.35 263.27 64.25 259.27 61.9 258.29 61.2 257.27 60.5 256.83 60.1 256.34 59.75 255.36 59.05 254.48 58.2 253.56 57.4 252.68 56.5 252.48 56.25 252.24 56.05 251.75 55.65 250.19 53.75 248.77 52 247.5 50.25 246.38 48.65 246.09 47.9 245.89 47.25 245.84 46.6 245.89 46 245.41 44.95 244.87 43.95 243.99 41.95 243.8 41.25 243.65 40.6 243.55 40 243.5 39.45 243.55 38.85 243.6 38.35 243.89 37.4 244.48 36.55 245.26 35.8 246.33 35.15 246.92 34.9 247.55 34.7 248.97 34.2 250.19 33.7 252.48 32.75 253.85 34.15 254.24 34.45 254.44 34.6 254.58 34.8 255.36 35.5 256.24 36.1 256.73 36.4 256.83 36.4 256.88 36.45 256.97 36.55 257.17 36.75 259.12 37.95 263.37 40.15 267.47 42.35 269.47 43.5 270.4 44.1 271.23 44.8 272.74 46.25 273.42 47 274.01 47.85 273.42 47 272.74 46.25 271.23 44.8 270.4 44.1 269.47 43.5 267.47 42.35 263.37 40.15 259.12 37.95 257.17 36.75 256.97 36.55 256.88 36.45 256.83 36.4 256.73 36.4 256.24 36.1 255.36 35.5 254.58 34.8 254.44 34.6 254.24 34.45 253.85 34.15 252.48 32.75 253.75 32.25 254.78 31.35 255.75 30.7 256.68 30.2 257.56 30 258.19 29.85 258.73 29.75 259.66 29.4 260.1 29.15 260.44 28.95 261.02 28.45 263.27 28.3 265.47 28.3 267.71 28.45 269.86 28.7 272.1 29.05 274.25 29.55 276.5 30.15" fill="#c60026"/>
  <polygon points="287.68 83.35 288.46 84.2 289.19 85.1 290.7 86.9 293.78 90.4 295.39 92.25 296.07 93.2 296.66 94.25 297.24 95.25 297.73 96.35 298.46 98.6 298.85 99.6 299.24 100.65 299.73 101.65 300.27 102.65 300.9 103.55 301.59 104.5 302.37 105.35 303.2 106.25 303.69 106.6 304.12 107 305 107.8 305.49 108.15 305.93 108.55 306.81 109.35 308.66 110.8 309.64 111.5 310.13 111.85 310.57 112.25 317.94 117.85 321.65 120.55 325.31 123.2 327.21 124.55 329.02 126 332.53 129.05 333.46 129.75 334.34 130.5 336.19 131.9 337.17 132.55 338.1 133.25 340.05 134.5 343.86 136.9 347.52 139.45 348.54 140.05 349.52 140.7 351.57 141.95 352.64 142.5 353.67 143.1 355.82 144.15 356.94 144.55 358.01 145 358.6 145.15 359.13 145.35 360.21 145.75 361.38 146 362.5 146.3 363.67 146.5 364.26 146.6 364.55 146.65 364.8 146.75 366.99 147.1 369.09 147.7 371.14 148.5 373.04 149.6 375.14 150.9 376.12 151.6 377 152.4 378.71 154.05 379.49 154.95 380.17 155.95 378.12 154.9 376.07 154.05 374.02 153.25 371.92 152.6 369.78 151.85 368.7 151.45 368.16 151.25 367.58 151.1 365.43 150.25 363.28 149.45 358.99 147.75 354.64 146.25 350.15 144.6 347.96 143.7 345.71 142.85 343.56 141.75 341.42 140.6 339.37 139.4 338.88 139.05 338.34 138.75 337.27 138.15 333.36 135.8 331.36 134.7 329.26 133.7 328.82 133.4 328.34 133.15 327.36 132.6 326.48 132 326.04 131.7 325.55 131.45 324.72 130.75 323.84 130.1 323.45 129.7 323.26 129.5 323.16 129.4 323.11 129.35 323.02 129.35 322.14 128.65 320.96 127.5 319.7 126.45 318.38 125.5 317.01 124.75 315.99 124.05 314.91 123.4 312.81 122 311.94 121.3 311.01 120.6 310.13 119.8 309.25 119.05 308.47 118.2 307.69 117.35 307.35 116.85 306.96 116.4 306.22 115.5 305 113.65 303.69 111.9 302.27 110.15 300.76 108.5 299.2 106.65 297.68 104.85 296.22 102.95 294.8 101.05 292.31 97.55 289.58 94.2 288.16 92.5 286.65 90.95 285.09 89.4 283.38 88.05 281.62 86.6 280.79 85.8 279.92 85.05 278.26 83.4 276.64 81.7 273.67 78.1 272.15 76.4 270.54 74.8 268.84 72.85 267.13 71 265.61 69.3 264.83 68.5 263.95 67.8 262.15 66.45 260.24 65.25 258.29 64.1 256.24 63.1 254.14 62.25 252 61.5 251.51 61.25 250.97 61.05 249.9 60.55 249.41 60.25 249.31 60.15 249.26 60.1 249.16 60.1 248.87 60 248.38 59.7 248.29 59.6 248.24 59.55 248.14 59.55 247.85 59.45 247.65 59.25 247.55 59.15 247.5 59.1 247.41 59.1 246.92 58.8 245.94 58.1 245.06 57.35 244.14 56.55 243.36 55.7 242.62 54.9 241.94 54.1 241.31 53.35 240.77 52.55 240.28 51.85 239.89 51.15 239.55 50.45 241.01 49.1 242.53 47.95 244.18 46.9 245.06 46.4 245.89 46 245.84 46.6 245.89 47.25 246.09 47.9 246.38 48.65 247.5 50.25 248.77 52 250.19 53.75 251.75 55.65 252.24 56.05 252.48 56.25 252.68 56.5 253.56 57.4 254.48 58.2 255.36 59.05 256.34 59.75 256.83 60.1 257.27 60.5 258.29 61.2 259.27 61.9 263.27 64.25 263.56 64.35 263.66 64.35 263.71 64.4 263.81 64.5 264.3 64.8 265.27 65.4 267.22 66.6 269.32 67.75 271.37 69 275.47 71.55 277.28 72.65 278.94 73.9 280.55 75.3 281.96 76.85 284.89 80" fill="#df777b"/>
  <polygon points="229.4 50.95 228.27 50.7 227.2 50.7 226.71 50.75 226.17 50.9 225.2 51.3 224.32 51.8 223.93 52.15 223.49 52.6 222.76 53.55 222.42 54.1 222.02 54.75 221.78 56.45 221.64 58.25 221.64 60.85 221.73 62.2 221.88 63.6 222.42 66.8 222.76 70.1 223.05 72.95 221.88 73.75 220.61 74.55 219 75.4 217.29 76.2 216.27 76.65 215.19 77.2 213.09 78.45 211.19 79.8 210.26 80.55 209.29 81.4 209.24 81.1 209.14 80.85 208.94 80.25 208.85 79.6 208.65 78.85 208.36 76.6 208.11 74.4 208.11 73.8 208.11 73.5 208.11 73.35 208.07 73.25 207.97 72.15 207.92 69.95 207.92 68 209.63 68.1 210.41 68.25 211.09 68.5 211.82 68.65 212.46 68.8 213.04 68.85 213.58 68.85 214.12 68.75 214.56 68.65 215 68.45 215.34 68.2 215.68 67.85 215.97 67.45 216.22 67 216.36 66.5 216.56 65.9 216.66 65.3 216.7 64.6 216.66 63.85 216.7 62.6 216.8 61.45 217 60.3 217.24 59.2 217.58 58.1 217.92 57.1 218.36 56.1 218.85 55.15 219.44 54.15 220.02 53.25 220.71 52.4 221.39 51.65 222.17 50.85 222.95 50.2 223.83 49.55 224.66 49 225.69 48.45 226.66 48 227.69 47.65 228.66 47.45 229.79 47.3 230.86 47.3 231.98 47.35 233.06 47.6 233.84 47.65 234.52 47.7 235.74 47.7 236.33 47.6 236.82 47.45 237.25 47.25 237.6 47.05 237.99 46.7 238.28 46.35 238.72 45.55 238.91 45.05 239.01 44.5 239.06 43.9 239.01 43.3 239.06 42 239.21 40.75 239.4 39.55 239.65 38.45 240.04 37.3 240.48 36.25 241.01 35.25 241.55 34.3 242.28 33.3 242.96 32.45 243.7 31.6 244.43 30.9 245.26 30.2 246.09 29.6 246.97 29.05 247.8 28.6 249.99 28.45 252.14 28.45 261.02 28.45 260.44 28.95 260.1 29.15 259.66 29.4 258.73 29.75 258.19 29.85 257.56 30 256.68 30.2 255.75 30.7 254.78 31.35 253.75 32.25 252.48 32.75 250.19 33.7 248.97 34.2 247.55 34.7 246.92 34.9 246.33 35.15 245.26 35.8 244.48 36.55 243.89 37.4 243.6 38.35 243.55 38.85 243.5 39.45 243.55 40 243.65 40.6 243.8 41.25 243.99 41.95 244.87 43.95 245.41 44.95 245.89 46 245.06 46.4 244.18 46.9 242.53 47.95 241.01 49.1 239.55 50.45 238.52 51.6 237.5 52.9 236.23 54.65 234.96 56.45 233.84 54.6 233.5 53.85 233.06 53.25 232.57 52.7 231.98 52.25 231.45 51.8 230.81 51.45" fill="#275b15"/>
  <g fill="#95001b">
   <polygon points="245.75 99.9 247.7 101.45 249.41 103.15 251.02 105 252.39 107.05 252.78 107.5 253.12 108 253.8 109 254.53 109.9 254.92 110.35 255.26 110.85 255.7 111.25 256.1 111.7 256.88 112.6 258.58 114.3 259.07 114.65 259.51 115.05 260.39 115.85 262.15 117.35 264 118.8 265.86 120.2 267.62 121.4 269.27 122.7 270.93 124 272.45 125.4 274.3 126.9 275.23 127.6 276.11 128.35 277.08 129 278.01 129.7 279.92 131 283.67 133.45 285.48 134.75 287.19 136.2 293.92 141.8 295.78 143.2 296.27 143.5 296.36 143.5 296.41 143.55 296.51 143.65 296.71 143.85 297.58 144.55 301.29 147.15 305.15 149.7 307 151.05 308.76 152.6 309.74 153.3 310.66 154 311.64 154.6 312.13 154.9 312.23 154.9 312.28 154.95 312.37 155.05 312.57 155.25 312.86 155.35 312.96 155.35 313.01 155.4 313.11 155.5 313.59 155.8 314.57 156.35 316.52 157.3 318.67 158.15 320.82 158.9 322.97 159.6 324.04 159.9 324.33 159.95 324.58 160.05 325.06 160.25 326.24 160.5 327.36 160.8 329.7 161.3 330.04 161.3 330.34 161.35 330.92 161.45 332.09 161.65 334.53 162 283.77 161.45 280.45 161.05 279.82 160.65 279.04 160.2 278.21 159.65 277.28 159.1 275.42 157.75 273.57 156.35 271.72 154.8 269.81 153.25 266.25 150 262.54 146.9 259.07 143.85 255.46 140.75 253.7 139.1 252 137.4 250.34 135.65 248.68 133.85 245.65 130.2 242.48 126.7 239.26 123.15 235.98 119.7 232.86 116.1 231.35 114.3 229.79 112.55 226.61 108.85 223.3 105.25 221.78 103.45 220.32 101.65 218.95 99.8 217.58 97.95 216.32 95.9 215.05 93.9 213.82 91.8 213.24 90.75 212.6 89.75 211.58 87.65 211.38 87.1 211.14 86.6 210.65 85.6 209.92 83.5 209.29 81.4 210.26 80.55 211.19 79.8 213.09 78.45 215.19 77.2 216.27 76.65 217.29 76.2 219 75.4 220.61 74.55 221.83 76 223.2 77.6 224.71 79.25 226.32 81 229.49 84.35 232.57 87.9 233.35 88.7 233.74 89.1 233.94 89.3 234.03 89.4 234.08 89.45 234.08 89.55 235.64 91.15 235.74 91.15 235.79 91.2 235.89 91.3 236.08 91.5 236.47 91.9 237.25 92.7 238.91 94.2 240.62 95.6 242.28 97.05 244.04 98.45 244.92 99.15 245.02 99.15 245.06 99.2 245.16 99.3 245.36 99.5"/>
   <polygon points="248.19 90.4 247.36 90.2 246.33 89.9 245.31 89.3 244.72 88.95 244.14 88.55 241.65 86.7 238.91 85.05 237.89 84.35 236.82 83.65 235.79 82.85 234.72 82.05 230.76 78.55 228.91 76.7 227.15 74.95 226.37 74.05 225.64 73.25 224.27 71.65 223.54 70.7 223.15 70.35 222.76 70.1 222.42 66.8 221.88 63.6 221.73 62.2 221.64 60.85 221.64 58.25 222.37 58.95 223.05 59.7 224.52 61.2 226.13 62.6 227.74 64 229.54 65.45 230.42 66.2 231.2 67.05 232.72 68.8 234.08 70.75 235.5 72.65 236.91 74.55 237.69 75.45 238.08 75.9 238.43 76.4 239.94 78.3 241.5 80.1 242.96 82.05 244.43 84 245.75 86.1 246.53 87.15 247.16 88.25 247.75 89.3"/>
   <polygon points="378.02 183.55 381.88 186.1 385.64 189.05 382.95 188.75 380.22 188.6 377.54 188.45 374.85 188.4 372.26 188.35 369.63 188.4 367.09 188.45 364.5 188.6 362.06 188.75 359.57 189 357.13 189.25 354.64 189.6 352.3 189.95 349.91 190.4 347.57 190.85 345.22 191.4 351.42 188.65 354.5 187.25 357.48 185.85 360.5 184.35 363.43 182.9 369.24 179.95 371.53 180.55 373.73 181.35 375.92 182.35"/>
  </g>
 </g>
 <g fill="none" stroke="#030904" stroke-linecap="square" stroke-miterlimit="10">
  <polyline points="252.48 32.75 250.19 33.7 248.97 34.2 247.55 34.7 246.92 34.9 246.33 35.15 245.26 35.8 244.48 36.55 243.89 37.4 243.6 38.35 243.55 38.85 243.5 39.45 243.55 40 243.65 40.6 243.8 41.25 243.99 41.95 244.87 43.95 245.41 44.95 245.89 46 245.06 46.4 244.18 46.9 242.53 47.95 241.01 49.1 239.55 50.45 238.52 51.6 237.5 52.9 236.23 54.65 234.96 56.45 233.84 54.6 233.5 53.85 233.06 53.25 232.57 52.7 231.98 52.25 231.45 51.8 230.81 51.45 229.4 50.95 228.27 50.7 227.2 50.7 226.71 50.75 226.17 50.9 225.2 51.3 224.32 51.8 223.93 52.15 223.49 52.6 222.76 53.55 222.42 54.1 222.02 54.75 221.78 56.45 221.64 58.25 221.64 60.85 221.73 62.2 221.88 63.6 222.42 66.8 222.76 70.1 223.05 72.95 221.88 73.75 220.61 74.55 219 75.4 217.29 76.2 216.27 76.65 215.19 77.2 213.09 78.45 211.19 79.8 210.26 80.55 209.29 81.4"/>
  <polyline points="95.606 129.95 94.728 129.9 93.702 130.1 92.433 130.45 91.604 130.7 90.725 131.05 89.066 131.85 87.504 132.75 85.942 133.85 85.161 134.45 84.331 135.15 82.769 136.65 81.305 138.25 79.84 140 77.156 143.6 74.52 147.3 73.788 148.25 72.958 149.2 72.128 149.95 71.152 150.7 70.225 151.25 69.151 151.8 68.077 152.25 66.906 152.6 64.709 153.05 62.415 153.4 60.121 153.55 57.729 153.65 52.994 153.55 50.652 153.5 48.26 153.5 47.137 153.4 45.966 153.3 45.429 153.2 44.843 153.15 43.672 153 41.426 152.5 39.181 151.95 34.886 150.4 30.59 148.7 28.492 147.7 27.467 147.2 26.393 146.75 25.416 146.2 24.392 145.7 22.341 144.65 20.389 143.4 18.437 142.1 16.582 140.65 15.654 139.85 14.678 139.1 13.848 138.35 12.872 137.8 11.847 137.35 10.676 137.05 9.553 136.85 8.284 136.8 6.9661 136.85 5.5018 137.1 5.3554 138.2 5.2577 139.3 5.3065 140.4 5.3554 140.5 5.3554 140.65 5.3554 140.95 5.4042 141.55 5.5506 141.95 5.6482 142.4 5.9899 143.3 6.2339 143.7 6.4292 144.15 6.9173 145.05 8.284 146.9 9.0162 147.8 9.6995 148.75 11.213 150.55 12.775 152.3 13.653 153.1 14.483 153.9 15.41 154.6 16.289 155.35 17.265 155.95 18.241 156.6 18.534 156.7 18.632 156.7 18.681 156.75 18.778 156.85 19.266 157.15 20.243 157.7 22.586 158.55 24.831 159.4 27.174 160.15 29.419 160.8 34.007 162.05 38.546 163.4 40.792 163.95 43.037 164.4 44.208 164.55 44.794 164.6 45.331 164.7 47.576 164.95 49.919 165.2 52.165 165.7 54.361 166.4 56.46 167.3 64.611 170.95 66.71 171.95 68.712 173.2 70.615 174.6 72.372 176.3 73.251 177.1 74.032 178 75.447 179.9 76.765 181.9 77.351 182.95 77.839 184.1 78.425 185.15 78.962 186.25 80.133 188.35 81.451 190.35 82.134 191.3 82.769 192.3 84.233 194.05 85.649 195.85 88.626 199.45 89.407 200.25 89.798 200.6 90.139 201 90.92 201.7 91.701 202.35 92.58 202.9 93.41 203.4 93.898 203.6 94.142 203.7 94.337 203.85 95.216 204.25"/>
  <polyline points="95.606 129.95 96.973 128.2 98.535 126.6 99.413 125.8 100.34 125.05 102.29 123.65 104.54 122.25 106.98 121 108.3 120.4 109.66 119.8 112.5 118.75 115.52 117.75 118.5 116.95 121.23 116.3 122.6 116 123.92 115.8 126.65 115.45 129.28 115.2 132.02 115.05 134.75 115.05 137.49 115.15 140.12 115.4 142.86 115.7 145.59 116.15 148.32 116.7 151.06 117.45 152.47 117.8 153.84 118.25 156.57 119.2 159.3 120.25 162.04 121.5 167.7 124.05 173.31 126.65 179.02 129.15 184.68 131.65 190.44 134.05 196.16 136.45 201.92 138.8 203.38 139.35 204.8 139.95 207.63 141.15 219.24 145.6 225.1 147.75 228.03 148.8 230.91 149.9 233.89 150.9 236.82 151.95 242.67 154 248.63 155.95 254.53 157.95 257.9 158.6 261.22 159.25 264.49 159.8 267.71 160.25 270.98 160.6 274.16 160.85 277.33 161 280.45 161.05"/>
  <polyline points="95.216 204.25 94.825 203.8 94.435 203.25 94.239 202.65 94.044 202.1 93.751 201 93.702 200.4 93.605 199.85 93.507 198.75 93.605 197.55 93.8 196.45 94.142 195.25 94.386 194.65 94.581 194.1 94.972 193.4 95.313 192.8 96.192 191.75 97.266 190.8 98.535 190.05 99.853 189.5 101.17 189.15 101.71 188.95 102.1 188.75 102.49 188.45 102.73 188.15 103.27 187.3 103.61 186.5 103.86 185.75 103.9 185.05 103.86 184.35 103.56 183.7 103.17 183.05 102.59 182.5 101.76 181.5 101.61 181.2 101.42 180.95 101.07 180.45 100.83 179.85 100.73 179.55 100.73 179.45 100.73 179.4 100.68 179.4 100.58 179.3 100.19 178.1 99.999 176.75 99.95 175.55 100.1 174.4 100.34 173.35 100.83 172.3 101.42 171.4 102.2 170.55 103.12 169.8 103.46 169.5 103.71 169.25 104.15 168.75 104.49 168.2 104.73 167.7 104.88 167.3 104.93 166.95 104.98 166.25 104.88 165.45 104.64 164.7 104.44 163.95 104.2 163.25 103.76 161.85 103.51 160.15 103.27 158.45 103.17 156.65 103.12 154.85 104 154.45 104.44 154.25 104.83 154.1 106.54 153.3 107.03 153.05 107.47 152.85 108.35 152.45 110.2 151.55 110.88 151.15 111.42 150.8 111.96 150.4 112.35 150.05 112.74 149.6 113.03 149.2 113.37 148.3 113.52 147.3 113.47 146.75 113.32 146.25 112.88 145.15 112.54 144.55 112.1 144 111.47 143.2 110.74 142.6 109.91 142.2 108.93 142.05 108.15 141.9 107.37 141.75 106.64 141.55 106.49 141.45 106.3 141.4 105.9 141.3 105.61 141.1 105.47 141 105.27 140.95 104.98 140.75 104.83 140.65 104.64 140.6 104.1 140.2 103.51 139.75 103.02 139.15 102.93 138.95 102.88 138.85 102.78 138.8 102.49 138.5 102.05 137.8 101.56 137.1 100.49 135.05 99.12 133.2 98.388 132.3 97.51 131.5 95.606 129.95"/>
  <polyline points="345.22 191.4 340.78 193.2 336.24 194.95 331.7 196.65 327.12 198.3 322.53 199.85 317.89 201.35 313.25 202.75 308.57 204.1 303.88 205.3 299.15 206.45 294.41 207.55 289.58 208.6 284.8 209.55 279.96 210.4 275.08 211.2 270.15 211.95 260.54 213.15 255.75 213.75 253.36 214.05 250.92 214.4 241.35 215.55 231.79 216.75 223.83 217.65 215.83 218.55 211.87 218.95 207.87 219.4 203.92 219.8 199.91 220.25 197.77 220.4 195.57 220.6 191.32 220.9 189.27 221 188.78 221 188.25 221.05 187.18 221.15 183.03 221.35 179.07 221.45 177.17 221.45 175.22 221.5 171.46 221.5 167.7 221.5 165.94 221.4 165.06 221.35 164.14 221.35 160.67 221.15 159.01 221 157.3 220.9 156.52 220.8 156.13 220.75 155.69 220.75 154.03 220.65 150.91 220.25 147.83 219.85 144.86 219.35 141.98 218.85 138.95 218.15 135.92 217.45 134.46 217.05 133.73 216.85 132.95 216.7 129.92 216 127.04 215.2 124.11 214.4 123.43 214.15 122.7 213.95 121.23 213.55 120.55 213.3 119.82 213.1 118.35 212.7 116.98 212.2 116.3 211.95 115.57 211.75 114.2 211.25 113.52 211 112.79 210.8 110.05 209.8 107.32 208.85 104.68 207.75 104.05 207.45 103.37 207.2 102 206.7 99.413 205.6 96.778 204.5 96.387 204.5 95.948 204.5 95.606 204.4 95.216 204.25"/>
  <polyline points="345.22 191.4 347.57 190.85 349.91 190.4 352.3 189.95 354.64 189.6 357.13 189.25 359.57 189 362.06 188.75 364.5 188.6 367.09 188.45 369.63 188.4 372.26 188.35 374.85 188.4 377.54 188.45 380.22 188.6 382.95 188.75 385.64 189.05 389.54 189.4 393.5 189.9 397.5 190.45 401.55 191.2 405.7 191.95 409.85 192.9 414.05 193.85 418.29 195 419.07 195.2 419.46 195.3 419.81 195.45 421.27 195.95 424.34 196.85 425.96 197.25 427.52 197.7 429.13 198.1 430.69 198.55 431.57 198.7 432.4 198.9 434.06 199.3 434.94 199.45 435.77 199.65 437.43 200.05 439.18 200.35 440.06 200.5 440.89 200.7 444.41 201.35 446.26 201.6 448.07 201.9 451.78 202.4 455.58 202.85 457.54 203.05 458.51 203.15 459 203.2 459.44 203.3 463.44 203.65 465.49 203.8 467.49 204 469.59 204.1 471.64 204.25 475.84 204.5 476.28 204.2 476.62 203.95 477.11 203.35 477.3 203 477.4 202.7 477.5 202.35 477.5 202.05 477.5 201.65 477.4 201.3 477.11 200.5 476.91 200.05 476.62 199.65 476.28 199.2 475.84 198.8 473.89 196.3 471.79 193.9 469.69 191.55 467.4 189.25 462.66 184.7 460.17 182.5 457.58 180.35 455 178.2 452.22 176.1 446.5 172.05 443.58 170.05 440.5 168.15 437.43 166.25 434.16 164.45 429.81 162.15 425.42 159.9 421.12 157.6 416.83 155.35 408.43 150.65 404.28 148.25 402.23 147.05 401.21 146.45 400.14 145.9 392.13 141 388.18 138.5 386.22 137.25 384.22 136.05 382.32 134.75 380.37 133.5 376.51 131 368.99 125.9 368.02 125 367.53 124.55 366.99 124.15 364.99 122.45 364.06 121.55 363.09 120.7 361.14 119 357.43 115.5 355.67 113.7 353.91 111.95 352.25 110.1 350.59 108.3 347.47 104.6 346 102.7 345.66 102.2 345.27 101.75 344.49 100.85 341.66 97.05 338 91.3 334.1 85.7 330.09 80.1 325.89 74.65 321.6 69.2 317.06 63.85 312.42 58.55 307.54 53.4 306.03 51.35 304.42 49.45 302.81 47.6 301.1 45.9 299.44 44.2 297.68 42.65 294.12 39.7 290.46 37.05 288.6 35.8 286.65 34.7 284.75 33.6 282.75 32.65 280.74 31.7 278.65 30.9 276.5 30.15 274.25 29.55 272.1 29.05 269.86 28.7 267.71 28.45 265.47 28.3 263.27 28.3 261.02 28.45"/>
  <polyline points="209.29 81.4 209.24 81.1 209.14 80.85 208.94 80.25 208.85 79.6 208.65 78.85 208.36 76.6 208.11 74.4 208.11 73.8 208.11 73.5 208.11 73.35 208.07 73.25 207.97 72.15 207.92 69.95 207.92 68 208.02 64.2 208.07 62.3 208.07 60.45 208.16 58.05 208.31 55.75 208.55 53.4 208.8 51.1 209.04 49.2 209.19 47.4 209.24 45.6 209.19 43.8 209.04 41.45 208.7 40.7 208.16 39.95 207.53 39 206.8 38.05 204.16 34.4 201.18 30.9 199.67 29.25 198.89 28.45 198.01 27.75 196.25 26.4 195.33 25.75 194.3 25.2 190.15 22.85 185.81 20.65 183.86 19.6 181.85 18.65 177.8 17 175.75 16.3 173.56 15.75 171.36 15.35 169.02 15.15 166.72 15 164.28 15 161.84 15.15 159.26 15.45 156.77 15.8 154.37 16.35 152.08 16.9 149.84 17.65 145.44 19.3 143.24 20.25 141 21.3 140.02 21.7 139 22.1 138.02 22.45 137.53 22.6 137 22.8 135.04 23.3 133.09 23.75 132.7 23.55 132.31 23.4 131.97 23.2 131.58 23.05 130.99 22.65 130.75 22.45 130.46 22.3 130.46 22.2 130.41 22.15 130.31 22.05 130.12 21.85 129.77 21.45 129.63 20.95 129.63 20.8 129.58 20.7 129.48 20.5 129.53 20.2 129.53 19.95 129.68 19.45 129.92 18.85 130.07 18.55 130.16 18.4 130.21 18.3 130.36 18.1 130.46 17.95 130.7 17.65 131.24 17.05 131.87 16.35 132.26 16 132.6 15.7 133.97 14.9 134.61 14.5 135.19 14.15 136.41 13.45 137.68 12.65 138.32 12.25 138.9 11.9 141 10.75 143.15 9.7 145.34 8.75 147.59 8 149.88 7.25 152.13 6.6 154.42 6 156.72 5.55 159.16 5.1 161.5 4.75 163.84 4.55 166.14 4.5 168.53 4.55 170.92 4.7 173.41 4.95 175.9 5.4 178.39 5.85 180.73 6.45 182.98 7.05 185.08 7.75 186.15 8.05 187.18 8.45 189.22 9.35 191.28 10.35 193.32 11.55 196.99 13.75 200.55 16.2 203.87 18.8 207.14 21.7 208.11 22.45 209.04 23.25 210.02 24 210.94 24.8 212.9 26.3 214.8 27.8 216.56 29 218.32 30.15 220.17 31.2 222.02 32.25 223.49 31.8 224.32 31.65 225.2 31.55 227.4 31.15 229.54 30.8 231.74 30.4 233.94 30 238.43 29.25 242.82 28.85 247.8 28.6 249.99 28.45 252.14 28.45 261.02 28.45"/>
  <polyline points="261.02 28.45 260.44 28.95 260.1 29.15 259.66 29.4 258.73 29.75 258.19 29.85 257.56 30 256.68 30.2 255.75 30.7 254.78 31.35 253.75 32.25 252.48 32.75"/>
  <polyline points="274.01 47.85 273.42 47 272.74 46.25 271.23 44.8 270.4 44.1 269.47 43.5 267.47 42.35 263.37 40.15 259.12 37.95 257.17 36.75 256.97 36.55 256.88 36.45 256.83 36.4 256.73 36.4 256.24 36.1 255.36 35.5 254.58 34.8 254.44 34.6 254.24 34.45 253.85 34.15 252.48 32.75"/>
  <polyline points="280.45 161.05 279.82 160.65 279.04 160.2 278.21 159.65 277.28 159.1 275.42 157.75 273.57 156.35 271.72 154.8 269.81 153.25 266.25 150 262.54 146.9 259.07 143.85 255.46 140.75 253.7 139.1 252 137.4 250.34 135.65 248.68 133.85 245.65 130.2 242.48 126.7 239.26 123.15 235.98 119.7 232.86 116.1 231.35 114.3 229.79 112.55 226.61 108.85 223.3 105.25 221.78 103.45 220.32 101.65 218.95 99.8 217.58 97.95 216.32 95.9 215.05 93.9 213.82 91.8 213.24 90.75 212.6 89.75 211.58 87.65 211.38 87.1 211.14 86.6 210.65 85.6 209.92 83.5 209.29 81.4"/>
  <polyline points="345.22 191.4 351.42 188.65 354.5 187.25 357.48 185.85 360.5 184.35 363.43 182.9 369.24 179.95 374.02 177.35 378.66 174.7 383.3 172 387.79 169.25 388.52 168.35 389.1 167.55 389.59 166.8 389.93 166.15 390.18 165.5 390.32 164.95 390.37 164.4 390.23 164 390.08 163.55 389.74 163.25 389.3 162.95 388.71 162.75 388.08 162.55 387.3 162.5 386.42 162.45 385.39 162.5 334.53 162 283.77 161.45"/>
  <polyline points="280.45 161.05 280.94 161.25 281.33 161.45 283.77 161.45"/>
  <line x1="280.45" x2="283.77" y1="161.05" y2="161.45"/>
 </g>
</svg>
